<?xml version="1.0"?>
<svg xmlns="http://www.w3.org/2000/svg" xmlns:xlink="http://www.w3.org/1999/xlink" xmlns:svgjs="http://svgjs.com/svgjs" version="1.1" width="512" height="512" x="0" y="0" viewBox="0 0 512 512" style="enable-background:new 0 0 512 512" xml:space="preserve" class=""><g><g xmlns="http://www.w3.org/2000/svg"><g><path d="m407 136h-121c-59.607 0-105 48.954-105 105v30c0 5.099.3 10.199 1.199 15h43.801c8.401 0 15-6.601 15-15v-30c0-24.901 20.099-45 45-45h121c24.901 0 45 20.099 45 45v30c0 24.899-20.099 45-45 45h-53.8c-8.101 23.699-23.399 44.7-42.9 60h96.7c57.9 0 105-47.1 105-105v-30c0-57.9-47.1-105-105-105z" fill="#666666" data-original="#000000" style="" class=""/></g><g><path d="m329.801 226h-43.801c-8.401 0-15 6.599-15 15v30c0 24.899-20.099 45-45 45h-121c-24.901 0-45-20.101-45-45v-30c0-24.901 20.099-45 45-45h53.8c8.399-24 23.399-44.401 42.599-60h-96.399c-57.9 0-105 47.1-105 105v30c0 57.9 47.1 105 105 105h121c52.8 0 96.599-39.3 103.801-90 .899-4.801 1.199-9.901 1.199-15v-30c0-5.101-.3-10.201-1.199-15z" fill="#666666" data-original="#000000" style="" class=""/></g></g></g></svg>
